<?xml version="1.0" encoding="utf-8"?>

<!DOCTYPE svg PUBLIC "-//W3C//DTD SVG 1.1//EN" "http://www.w3.org/Graphics/SVG/1.1/DTD/svg11.dtd">
<svg version="1.1" id="Layer_1" xmlns="http://www.w3.org/2000/svg" xmlns:xlink="http://www.w3.org/1999/xlink" x="0px" y="0px"
	 viewBox="0 0 2027.7875 1768.851" enable-background="new 0 0 2027.7875 1768.851" xml:space="preserve">
<g>
	<path fill="#5DC3FE" stroke="#000000" stroke-width="11.647" stroke-miterlimit="10" d="M332.0211,835.1707
		c5.4721,116.4471-14.7632,229.572-75.321,304.7131c-26.5383,32.9291-71.7613,44.7932-110.751,28.41
		c-23.0581-9.689-36.212-23.2499-41.3814-42.186c-3.4441-12.6163-2.0668-25.984,1.9358-38.4343
		C135.3173,998.047,238.2806,928.9113,332.0211,835.1707z"/>
	<path fill="#5DC3FE" stroke="#000000" stroke-width="11.647" stroke-miterlimit="10" d="M1742.7618,938.2949
		c100.9254,90.1752,163.2311,186.0022,181.4905,288.275c0.9873,5.5295,1.1832,11.2253,0.6027,16.8123
		c-4.4412,42.7358-30.3241,52.2954-64.5314,55.6052c-47.8016,4.6251-84.5042-15.1042-85.5325-59.3269
		C1771.8794,1114.4495,1759.0146,1000.4677,1742.7618,938.2949z"/>
	<path d="M388.3146,518.7607C561.8195,394.9079,690.3606,354.46,813.1833,391.2143c28.7,8.5884,41.4706,43.0293,24.7101,67.8595
		c-21.5444,31.9174-69.7759,63.7694-127.3453,95.5987c-71.8965,29.9197-147.8898,83.9338-232.9397,191.2045
		c21.9909-116.1837,151.2429-194.919,291.1745-299.9098C699.2494,421.0709,559.0485,456.8155,388.3146,518.7607z"/>
	<path d="M1580.4321,509.5404c-105.9447-39.3086-191.5092-57.4451-235.8514-32.7571
		c306.72,178.9586,330.7098,228.0822,337.0345,269.0937c-61.0428-64.9538-143.5016-116.6511-243.1307-157.7195
		c-77.603-30.1072-140.6877-61.1334-165.2046-94.6004c-15.2269-20.7857-5.308-50.2227,19.2656-57.9714
		C1405.2159,400.0575,1499.9392,429.1697,1580.4321,509.5404z"/>
	<path d="M245.3967,475.3274c23.835-94.8571,123.2303-163.6947,270.0644-216.1971
		c121.9855-51.815,204.5409-108.8535,220.5647-174.7047c-70.4626,52.2405-160.3074,102.1421-279.5276,148.499
		C293.4028,316.2793,216.3731,397.2636,245.3967,475.3274z"/>
	<path d="M1419.5581,90.9769c35.6846,91.9478,108.8464,155.9849,212.5575,197.2708
		c107.7914,29.5454,180.0334,81.5396,187.0796,174.7047c-61.7281-74.9842-143.454-116.4378-235.1234-141.2197
		C1469.6415,268.9012,1423.5142,188.4618,1419.5581,90.9769z"/>
	<path d="M840.243,1648.3738c63.5905-59.8694,148.3029-96.2494,236.0127-81.4546c42.4279,9.2893,81.9583,27.8536,117.5741,52.6348
		c12.1058,8.423,27.4641,16.5863,37.7743,27.1696c18.7231,13.0901,4.1377,43.2991-17.7472,36.7966
		c-10.4424-3.1027-18.212-16.9506-24.6416-24.6909c-11.7262-14.1168-25.9559-26.7379-40.6002-37.7083
		c-41.1388-29.5237-89.2256-46.8318-140.3549-38.9066c-46.4673,7.2025-89.0674,33.5533-119.5963,68.8948
		c-8.7431,10.1213-17.3028,31.3464-32.263,32.9965C836.8912,1686.2576,826.0035,1661.5748,840.243,1648.3738z"/>
	<path d="M655.0451,1546.2062c-185.9176-0.3385-256.7454-85.4026-240.0334-234.91c7.0505-63.075,29.4068-123.455,62.6211-177.5378
		c156.9017-255.483,403.7495-315.7668,710.4415-246.1762c331.0106,86.5658,541.5847,302.3448,447.4385,566.8198
		c-55.5239,114.4266-169.6355,117.9807-304.9453,52.066c-13.6931-6.6705-25.7384-16.1913-36.2767-27.1886
		c-126.8759-132.3992-334.864-89.5564-589.5181,54.1113C689.6249,1541.9365,672.4372,1546.2379,655.0451,1546.2062z"/>
	<path fill="#FF0000" d="M975.2485,1297.0026c-71.4111-7.72-129.8344-62.4519-140.4185-133.495
		c-11.4603-76.9246,15.9218-158.1192,75.1726-158.1192c79.3275-3.0175,71.3378,10.8679,50.2276,97.4201
		c-20.6502,61.178-0.113,91.071,56.0511,93.9038c42.9451-4.0112,66.2588-27.2499,63.246-76.2722
		c-0.4922-8.0076-2.7218-15.8625-6.1437-23.1189c-26.3523-55.8813-31.4456-93.8092,10.5958-91.9328
		c92.2802-6.696,138.3655,25.9363,135.3961,100.332c3.9347,78.1818-19.3832,127.9681-59.8043,159.9342
		c-22.5847,17.8605-50.3212,28.0363-78.9415,31.1893C1044.2301,1300.8539,1009.179,1300.6707,975.2485,1297.0026z"/>
</g>
</svg>
